# xmcd
#
# Track frame offsets: 
#        150
#        10640
#        23114
#        31317
#        33612
#        44125
#        54816
#        57054
#        68540
#        78709
#        88721
#        97213
#        108059
#        119961
#        122323
#        132461
#        143182
#        153585
#        164539
#
# Disc length: 2220 seconds
#
# Revision: 0
# Processed by: cddbd v1.5.2PL0 Copyright (c) Steve Scherf et al.
# Submitted via: ExactAudioCopy v1.0b3
#
DISCID=0308aa13
DTITLE=Tim Renwick - Vintage Blues Guitar
DYEAR=2013
DGENRE=Blues
TTITLE0=Mr Big Noise
TTITLE1=Carolina
TTITLE2=Mississippi Mist
TTITLE3=Rolling Rock
TTITLE4=Straight, No Chaser
TTITLE5=What's Up Doc?
TTITLE6=Black Day At Jenkins Creek
TTITLE7=Couldn't Give A Tuppenny
TTITLE8=Smooth Operator
TTITLE9=Rollin' And Tumblin'
TTITLE10=On The Road
TTITLE11=Shoe Shine Shuffle
TTITLE12=Swamp Thing
TTITLE13=Beer Buzz
TTITLE14=Jambalaya
TTITLE15=Southside Serenade
TTITLE16=BB Good
TTITLE17=Knee Trembler
TTITLE18=Couldn't Give A Tuppenny (reprise)
EXTD=
EXTT0=
EXTT1=
EXTT2=
EXTT3=
EXTT4=
EXTT5=
EXTT6=
EXTT7=
EXTT8=
EXTT9=
EXTT10=
EXTT11=
EXTT12=
EXTT13=
EXTT14=
EXTT15=
EXTT16=
EXTT17=
EXTT18=
PLAYORDER=
